# xmcd
#
# Track frame offsets:
#	150
#	19899
#	43037
#	67032
#	89149
#
# Disc length: 1347 seconds
#
# Revision: 1
# Processed by: cddbd v1.5.2PL0 Copyright (c) Steve Scherf et al.
# Submitted via: audiograbber 1.83.01
#
DISCID=44054105
DTITLE=Steven Casper - Endless Sky
DYEAR=2014
DGENRE=
TTITLE0=Endless Sky
TTITLE1=Rattlesnake Road
TTITLE2=Luite Hours
TTITLE3=River
TTITLE4=The Last Dance Of The Year
EXTD=
EXTT0=
EXTT1=
EXTT2=
EXTT3=
EXTT4=
PLAYORDER=
